<?xml version="1.0" encoding="UTF-8" standalone="no"?>
<!DOCTYPE svg PUBLIC "-//W3C//DTD SVG 1.1//EN" "http://www.w3.org/Graphics/SVG/1.1/DTD/svg11.dtd">
<svg width="100%" height="100%" viewBox="0 0 256 256" version="1.1" xmlns="http://www.w3.org/2000/svg" xmlns:xlink="http://www.w3.org/1999/xlink" xml:space="preserve" xmlns:serif="http://www.serif.com/" style="fill-rule:evenodd;clip-rule:evenodd;stroke-linejoin:round;stroke-miterlimit:2;">
    <path d="M194.49,28.187C194.49,28.187 197.371,26.358 201.881,21.888C202.419,21.354 204.566,18.802 204.566,18.249C204.567,13.699 199.232,12.797 190.88,10.255C182.529,7.713 117.893,-7.901 74.682,34.947C31.471,77.795 31.107,114.47 31.107,133.716C31.107,152.961 60.52,274.607 191.244,242.289C191.676,242.231 192.112,242.235 192.51,242.111C202.583,238.967 206.437,238.165 206.495,235.026C206.556,231.679 203.227,231.758 193.059,224.133C182.892,216.507 133.871,182.374 136.412,130.811C138.228,106.482 146.903,59.564 194.49,28.187Z" style="fill:rgb(197,199,213);"/>
</svg>
