<?xml version="1.0" encoding="UTF-8" standalone="no"?>
<!DOCTYPE svg PUBLIC "-//W3C//DTD SVG 1.1//EN" "http://www.w3.org/Graphics/SVG/1.1/DTD/svg11.dtd">
<svg width="100%" height="100%" viewBox="0 0 150 150" version="1.1" xmlns="http://www.w3.org/2000/svg" xmlns:xlink="http://www.w3.org/1999/xlink" xml:space="preserve" xmlns:serif="http://www.serif.com/" style="fill-rule:evenodd;clip-rule:evenodd;stroke-linejoin:round;stroke-miterlimit:2;">
    <g transform="matrix(0.598679,0,0,0.598679,-164.016,-95.6873)">
        <path d="M282.376,251.221C297.037,200.996 343.464,164.255 398.404,164.255C465.104,164.255 519.255,218.407 519.255,285.106C519.255,351.806 465.104,405.957 398.404,405.957C331.705,405.957 277.553,351.806 277.553,285.106C277.553,274.661 278.881,264.524 281.376,254.861C281.298,253.99 281.448,253.087 281.858,252.243C281.858,252.243 282.035,251.877 282.376,251.221ZM483.438,353.655C474.404,355.554 462.135,354.791 445.815,347.49C413.044,332.829 384.186,338.376 374.075,341.322C375.361,346.317 376.594,351.68 377.757,357.435C381.205,374.493 388.072,383.975 395.323,389.071C399.313,391.874 403.354,393.314 406.794,394.028C437.71,391.676 465.047,376.43 483.438,353.655ZM339.021,289.468C305.484,314.118 304.179,334.524 306.646,344.373C323.814,370.887 352.165,389.505 384.995,393.529C377.913,386.906 371.378,376.349 367.955,359.416C359.332,316.751 347.205,297.133 339.021,289.468ZM500.327,245.749C497.358,254.6 490.531,265.353 475.953,276.851C471.232,280.575 467.073,284.118 463.407,287.5C463.153,288.058 462.791,288.578 462.323,289.029C461.829,289.504 461.263,289.857 460.661,290.089C441.948,308.155 437.467,321.483 435.675,333.025C440.309,334.44 445.065,336.199 449.898,338.361C465.459,345.323 476.512,345.606 484.218,343.117C489.263,341.487 492.719,338.693 494.938,336.252C503.048,320.988 507.644,303.58 507.644,285.106C507.644,271.233 505.052,257.961 500.327,245.749ZM372.525,239.118C369.91,251.752 363.359,265.761 346.558,282.862C353.591,289.857 363.229,304.327 371.404,331.69C380.23,329.15 400.778,325.062 425.943,330.492C427.925,318.197 432.649,303.857 451.6,284.95C437.628,269.288 430.027,253.673 425.519,239.482C404.882,245.14 387.8,243.17 372.525,239.118ZM362.893,236.268C361.295,235.754 359.713,235.228 358.145,234.699C345.948,230.585 334.758,226.205 323.234,225.924C316.373,225.757 310.226,230.539 305.105,235.941C301.166,240.097 297.86,244.751 295.427,248.59C291.373,260.007 289.165,272.301 289.165,285.106C289.165,299.685 292.027,313.6 297.218,326.319C300.653,313.345 310.876,297.116 335.672,279.553C353.769,262.248 360.49,248.606 362.893,236.268ZM416.718,177.398C419.996,180.079 422.732,183.402 424.459,187.473C426.684,192.716 427.752,200.182 429.128,209.22C431.908,227.474 436.37,252.729 458.886,278.093C462.166,275.168 465.779,272.14 469.76,269C493.409,250.347 493.227,234.81 491.706,228.293C475.551,201.832 448.451,182.763 416.718,177.398ZM384.182,176.786C354.789,180.613 329.049,196.146 311.797,218.554C315.526,216.815 319.451,215.829 323.478,215.927C335.96,216.231 348.131,220.768 361.341,225.224C378.621,231.052 397.878,236.663 422.839,229.846C422.005,226.395 421.326,223.06 420.745,219.864C418.541,207.739 417.951,197.737 415.253,191.378C412.981,186.023 407.9,182.85 402.798,180.766C394.199,177.255 385.175,176.922 385.175,176.922C384.833,176.91 384.501,176.863 384.182,176.786Z" style="fill:rgb(59,167,255);"/>
    </g>
</svg>
